inDegrees=yes
name=ik_S50_A08_T01
DataType=double
version=3
OpenSimVersion=4.3-2021-08-27-4bc7ad9
endheader
time	pelvis_tilt	pelvis_list	pelvis_rotation	pelvis_tx	pelvis_ty	pelvis_tz	hip_flexion_r	hip_adduction_r	hip_rotation_r	knee_angle_r	knee_angle_r_beta	ankle_angle_r	subtalar_angle_r	mtp_angle_r	hip_flexion_l	hip_adduction_l	hip_rotation_l	knee_angle_l	knee_angle_l_beta	ankle_angle_l	subtalar_angle_l	mtp_angle_l	lumbar_extension	lumbar_bending	lumbar_rotation	arm_flex_r	arm_add_r	arm_rot_r	elbow_flex_r	pro_sup_r	wrist_flex_r	wrist_dev_r	arm_flex_l	arm_add_l	arm_rot_l	elbow_flex_l	pro_sup_l	wrist_flex_l	wrist_dev_l
0	0	0	0	0	0.9399999999999999	0	0	0	0	0	0	0	0	0	0	0	0	0	0	0	0	0	0	0	0	0	0	0	0	89.99999999963507	0	0	0	0	0	0	89.99999999869995	0	0
0.02	-6.614913992557928	-1.264799424264086	27.11272511651398	0	0.9399999999999999	0	3.102883602914364	-1.463358555166426	-1.045842854546136	4.799337379548101	0.08376423918715112	0	0	0	3.102883602914364	-1.463358555166426	-1.045842854546136	4.799337379548101	0.08376423918715112	0	0	0	-2.605119311136736	-3.808688970009029	6.890867900170196	8.908748344309076	-3.835292221468918	-4.702103700556349	60.40322213943916	106.9284161738055	0	0	10.95940550711565	-7.139747414412339	-9.599631633195456	63.00113253438413	123.2565382660866	0	0
0.04	-5.857263182427475	-1.442599652617268	28.7090216104078	0	0.9399999999999999	0	44.6446289598335	-10.26048067973837	-10.55978530549207	55.34331626184981	0.9659230877417994	0	0	0	44.6446289598335	-10.26048067973837	-10.55978530549207	55.34331626184981	0.9659230877417994	0	0	0	-3.28501297154714	-3.224149160459367	5.348261724862895	8.910896703288904	-3.845564114830743	-4.71350557777938	60.42026851002694	106.9141806296267	0	0	10.97098374851251	-7.130681429938151	-9.59208555503487	62.95938116283845	123.2703447962279	0	0
0.06	-5.845834081904293	-1.444669695377202	28.71670280486157	0	0.9399999999999999	0	44.64632880881714	-10.25633238839726	-10.55393082544712	55.34221389195293	0.965903847757524	0	0	0	44.64632880881714	-10.25633238839726	-10.55393082544712	55.34221389195293	0.965903847757524	0	0	0	-3.284695796205049	-3.215695764146824	5.335300579295723	8.905397603437883	-3.824650027436378	-4.731964726757017	60.37690144068899	106.9427314770349	0	0	10.95354854210178	-7.110842402929592	-9.616384578213072	62.96467274308425	123.3023306463648	0	0
0.08	-5.847542552096209	-1.454174703822629	28.72925030084421	0	0.9399999999999999	0	44.64723253701022	-10.25450022308099	-10.55110252786534	55.34161051661157	0.9658933168711918	0	0	0	44.64723253701022	-10.25450022308099	-10.55110252786534	55.34161051661157	0.9658933168711918	0	0	0	-3.295487564511016	-3.214306084318119	5.326232845972932	8.92792089293077	-3.824503740570487	-4.729835118111369	60.40705784120249	106.9089677125536	0	0	10.97114608890852	-7.13120701667893	-9.61100152593829	62.99094816047133	123.2301328651268	0	0
0.1	-5.842453865111493	-1.460677491795436	28.73798872545874	0	0.9399999999999999	0	44.64746275994735	-10.25402495054698	-10.55037810306996	55.34145706615587	0.9658906386555012	0	0	0	44.64746275994735	-10.25402495054698	-10.55037810306996	55.34145706615587	0.9658906386555012	0	0	0	-3.295229655462721	-3.220487528045602	5.326526522417537	8.92436160035385	-3.814375659206904	-4.741810932387925	60.40145154672078	106.9074743058013	0	1.497393312293219e-51	10.9722117400062	-7.135744744442408	-9.623238460082296	62.98666712579794	123.2336833140693	0	1.497393312293219e-51
0.12	-5.838507806398394	-1.468455383112733	28.74073905499323	0	0.9399999999999999	0	44.64834920486753	-10.25217906142288	-10.54756117062481	55.34086934213693	0.9658803809362776	0	0	0	44.64834920486753	-10.25217906142288	-10.54756117062481	55.34086934213693	0.9658803809362776	0	0	0	-3.300018915589306	-3.220859165796332	5.31960566317395	8.942364821612431	-3.813157764562415	-4.727950067376335	60.42217838001869	106.8826034466747	0	-4.962565413606746e-68	10.97321887736642	-7.143412032620979	-9.627432174225346	63.00939408506062	123.1996089527172	0	-4.962565413606746e-68
0.14	-5.831767263403318	-1.470374588544112	28.74807199705991	0	0.9399999999999999	0	44.64853955487904	-10.25177124198565	-10.54694913467826	55.34074327311961	0.9658781806168406	0	0	0	44.64853955487904	-10.25177124198565	-10.54694913467826	55.34074327311961	0.9658781806168406	0	0	0	-3.296055816968365	-3.223825076603647	5.313951402852965	8.929596923843926	-3.793990877466426	-4.734635681138014	60.39517783314781	106.8969231821532	0	0	10.95145215770326	-7.143490389436289	-9.657040504929993	63.00420303771353	123.2433379065133	0	0
0.16	-5.825447270416708	-1.47559472913044	28.74859325972923	0	0.9399999999999999	0	44.64965542781385	-10.25022116571681	-10.54399232831401	55.33996980367547	0.9658646810283769	0	0	0	44.64965542781385	-10.25022116571681	-10.54399232831401	55.33996980367547	0.9658646810283769	0	0	0	-3.299039810982157	-3.219806957269493	5.30740932683276	8.939318485955427	-3.795395587962906	-4.751455018067538	60.36891485658694	106.9033819345942	0	0	10.93710584882071	-7.151722044176954	-9.675566235185636	63.02290182000339	123.2412770437313	0	0
0.18	-5.83043693475629	-1.477532953145813	28.75495761152805	0	0.9399999999999999	0	44.65005565940094	-10.2492322622131	-10.54260959638648	55.33970967857683	0.9658601409889386	0	0	0	44.65005565940094	-10.2492322622131	-10.54260959638648	55.33970967857683	0.9658601409889386	0	0	0	-3.30630363476103	-3.215559406053553	5.306895525601051	8.952498190944601	-3.793823166745514	-4.756896086291759	60.37422944314734	106.8862543459256	0	0	10.93858568464063	-7.158180547013997	-9.68123639980729	63.03846158174096	123.2096672679968	0	0
0.2	-5.832221816359868	-1.480632528037356	28.75112522641868	0	0.9399999999999999	0	44.65044794916774	-10.2481686597929	-10.54118588174141	55.33945869682318	0.9658557605309749	0	0	0	44.65044794916774	-10.2481686597929	-10.54118588174141	55.33945869682318	0.9658557605309749	0	0	0	-3.311306011411142	-3.213871227898189	5.305440852524096	8.96695088016522	-3.79128417864214	-4.768912317914163	60.3614939659447	106.8858176479413	0	0	10.92868189151223	-7.155518734542897	-9.663462840495265	63.04885388798129	123.2114129301148	0	0
0.22	-5.836340422184512	-1.479069130755286	28.74678030365805	0	0.9399999999999999	0	44.65055565229759	-10.24780466051869	-10.5407446852532	55.33939233821337	0.9658546023547467	0	0	0	44.65055565229759	-10.24780466051869	-10.5407446852532	55.33939233821337	0.9658546023547467	0	0	0	-3.314645006751423	-3.209736109452534	5.308767573263577	8.95681819752761	-3.791514384157381	-4.783513404119779	60.3339790954135	106.9120072885304	0	0	10.9203187499075	-7.152827842626476	-9.637662138842055	63.05330388120827	123.2319642478418	0	0
0.24	-5.831487100026687	-1.482988992902839	28.74762937412984	0	0.9399999999999999	0	44.65140754720895	-10.24627673117078	-10.53823376870874	55.33881490254288	0.9658445242010781	0	0	0	44.65140754720895	-10.24627673117078	-10.53823376870874	55.33881490254288	0.9658445242010781	0	0	0	-3.316473271302737	-3.208079913537479	5.311689595842788	8.954927865000048	-3.792565910975044	-4.764813639953704	60.33495623265635	106.8993021134569	0	0	10.91509511430705	-7.156686574492836	-9.588283337464873	63.07941936279844	123.200571071558	0	0
0.26	-5.830381477173625	-1.486064040668998	28.74846511296776	0	0.9399999999999999	0	44.65194168620729	-10.24541521246589	-10.53674263658932	55.33844730203064	0.9658381083618076	0	0	0	44.65194168620729	-10.24541521246589	-10.53674263658932	55.33844730203064	0.9658381083618076	0	0	0	-3.319753062048853	-3.206252935373649	5.310675432103857	8.955406828453084	-3.795054160951561	-4.7522644868321	60.32138275467677	106.8860581093128	0	0	10.89933565491497	-7.167964370927211	-9.559182909140663	63.09216015478339	123.1886458803401	0	0
0.28	-5.829815693669609	-1.484289527140527	28.76039104909363	0	0.9399999999999999	0	44.65280022991615	-10.2436349146375	-10.53403036801175	55.33787545518366	0.9658281277515106	0	0	0	44.65280022991615	-10.2436349146375	-10.53403036801175	55.33787545518366	0.9658281277515106	0	0	0	-3.323026034627014	-3.196442183048088	5.300591179785917	8.978287420296498	-3.778098237672173	-4.709920415215691	60.33833079829446	106.8429272977919	0	0	10.9054715488339	-7.157336013067336	-9.533706004073027	63.11727233636707	123.1354902432012	0	0
0.3	-5.823016621673257	-1.479960623418632	28.76661060562472	0	0.9399999999999999	0	44.65309980391151	-10.24300632337232	-10.53308405430424	55.33767594125695	0.9658246455765861	0	0	0	44.65309980391151	-10.24300632337232	-10.53308405430424	55.33767594125695	0.9658246455765861	0	0	0	-3.316574588125398	-3.192934609587303	5.296686275595022	8.972981964452147	-3.788639419786138	-4.697722263546441	60.31633684771587	106.8420502308814	0	0	10.89058785421705	-7.1654422945967	-9.543098956370935	63.10503220611546	123.1525974019924	0	0
0.32	-5.816150179489461	-1.479326702179458	28.76875964570986	0	0.9399999999999999	0	44.6543175863063	-10.24127205433531	-10.52985201159205	55.33682952308193	0.9658098727925831	0	0	0	44.6543175863063	-10.24127205433531	-10.52985201159205	55.33682952308193	0.9658098727925831	0	0	0	-3.31676952007588	-3.183789735941717	5.289019308214618	8.965954234174074	-3.787209309733532	-4.723956910249572	60.33850760813595	106.806808018811	0	0	10.88070929397502	-7.175876558014783	-9.574727877820612	63.1279000657574	123.103509562319	0	0
0.34	-5.814888774674358	-1.481170059983355	28.76400730768539	0	0.9399999999999999	0	44.65446066946208	-10.24133178104597	-10.52968156038474	55.33671756047374	0.9658079186764312	0	0	0	44.65446066946208	-10.24133178104597	-10.52968156038474	55.33671756047374	0.9658079186764312	0	0	0	-3.31724499972895	-3.184960220152688	5.296030464967007	8.977437613344032	-3.773054103437986	-4.757637387238022	60.29767933843274	106.8383451063687	0	0	10.88041529227207	-7.174223850357975	-9.577939785503313	63.11522756688699	123.1468260117671	0	0
0.36	-5.809302146631342	-1.480948256919433	28.76834104340259	0	0.9399999999999999	0	44.65543865833555	-10.24000870091669	-10.52713988837721	55.33603472797112	0.9657960010010207	0	0	0	44.65543865833555	-10.24000870091669	-10.52713988837721	55.33603472797112	0.9657960010010207	0	0	0	-3.31746638156232	-3.177838693382733	5.289431006492601	8.989275189070243	-3.762849084636686	-4.777932579387218	60.28935506579865	106.8250743403936	0	0	10.86030680162767	-7.18023885888403	-9.598507042376436	63.13935881377079	123.1155637202644	0	0
0.3800000000000001	-5.810988564507452	-1.476633484991674	28.7599549951702	0	0.9399999999999999	0	44.65564236908489	-10.23941311042693	-10.52637127623131	55.33590581011916	0.9657937509600396	0	0	0	44.65564236908489	-10.23941311042693	-10.52637127623131	55.33590581011916	0.9657937509600396	0	0	0	-3.317920238808324	-3.171282858160141	5.28775733013565	8.983605977153243	-3.750553880662404	-4.763964159115218	60.26518927345856	106.8398015234934	0	0	10.84933675299672	-7.172884765240426	-9.574515088937979	63.14059117714098	123.1266618863556	0	0
0.4000000000000001	-5.816447629973159	-1.484126671991445	28.76534994505643	0	0.9399999999999999	0	44.65656916163715	-10.23741698972431	-10.52339370625867	55.33529119610542	0.9657830239218708	0	0	0	44.65656916163715	-10.23741698972431	-10.52339370625867	55.33529119610542	0.9657830239218708	0	0	0	-3.330967119346028	-3.166726269555204	5.284946124942923	9.004905050741174	-3.758935854653921	-4.773340505204994	60.28572846995021	106.8145010286434	0	0	10.85751150065974	-7.17810078393031	-9.55800246238006	63.17052888938147	123.0698957534512	0	0
0.4200000000000001	-5.813849033291858	-1.47728257523411	28.7744706358031	0	0.9399999999999999	0	44.65655237468117	-10.23737742604763	-10.5233972304612	55.33530451756718	0.9657832564252398	0	0	0	44.65655237468117	-10.23737742604763	-10.5233972304612	55.33530451756718	0.9657832564252398	0	0	0	-3.325203905227901	-3.162458009639141	5.288886126402947	8.997568722241617	-3.755747595135065	-4.772664861333902	60.25388816308499	106.8416058940455	0	0	10.83000115247378	-7.188133828658919	-9.533142910965934	63.15956260716159	123.1131757276917	0	0
0.4400000000000001	-5.815910452137878	-1.479019250890004	28.7864778219844	0	0.9399999999999999	0	44.65717122625084	-10.2358952063124	-10.52129704169887	55.33490033566615	0.9657762021202897	0	0	0	44.65717122625084	-10.2358952063124	-10.52129704169887	55.33490033566615	0.9657762021202897	0	0	0	-3.330845952767522	-3.157557415543743	5.288312293883373	9.005872913596104	-3.743534823034495	-4.779129363169237	60.25441016077209	106.8221156857793	0	0	10.84753420400128	-7.176814595227593	-9.539615768237731	63.17967943358458	123.0829397809518	0	0
